<?xml version="1.0" encoding="UTF-8"?>
<!-- Generated by Pixelmator Pro 3.6.18 -->
<svg width="705" height="182" viewBox="0 0 705 182" xmlns="http://www.w3.org/2000/svg">
    <path id="Path" fill="#66899b" stroke="none" d="M 133.493988 133.359009 C 141.497986 135.817993 150.708008 137.197998 159.089996 136.536987 C 164.031006 136.146973 169.809998 134.778992 173.062988 130.757996 C 175.061005 128.322998 175.993011 125.184998 175.649994 122.054016 C 174.431 111.612 151.79599 99.349976 143.881012 92.864014 C 133.52301 84.375977 127.036987 74.820007 125.730988 61.242004 C 124.464996 48.079956 127.773987 34.962036 136.324005 24.739014 C 147.194 11.742004 162.778015 6.188965 179.203003 4.707031 C 191.868011 3.466003 204.700989 6.473022 216.799011 9.881958 C 216.906006 24.448975 216.882996 39.016968 216.727997 53.583984 C 209.154999 49.598999 201.511993 47.786011 192.964996 47.469971 C 187.783997 47.278015 179.761993 47.19397 175.871002 51.119995 C 174.483002 52.520996 174.011993 54.613037 174.042999 56.530029 C 174.212006 66.954956 191.13501 74.752014 198.696991 79.608032 C 203.088989 82.427979 207.253998 85.427002 210.962006 89.113037 C 220.959991 99.052002 226.165009 111.28302 226.147003 125.411987 C 226.131012 138.481018 222.234009 152.034973 212.684998 161.348022 C 193.122986 180.427979 164.980011 176.281982 140.247009 175.895996 C 125.596985 175.66803 110.928009 175.783997 96.273987 175.664001 C 91.854996 158.396973 86.654007 140.872986 81.091995 123.942017 C 77.347 123.840027 73.600998 123.781982 69.854004 123.768982 C 64.996994 141.018982 60.606003 158.523987 55.197006 175.60498 C 38.626007 176.005981 21.828003 176.228027 5.261002 175.749023 L 12.520004 154.205994 C 19.981003 132.411987 27.306 110.570984 34.496002 88.684998 C 43.488007 61.093994 52.205002 33.346985 61.936996 6.010986 C 72.268005 5.952026 82.598007 5.958984 92.927994 6.031982 L 113.781006 71.43396 C 120.487 92.017029 127.64801 112.51001 133.493988 133.359009 Z"/>
    <path id="path1" fill="#66899b" stroke="none" d="M 228.609009 132.880005 C 237.665985 135.737 247.971008 137.77301 257.507996 136.955994 C 262.571991 136.52301 268.138 135.007019 271.42099 130.85498 C 273.279999 128.504028 274.27301 125.304016 273.893005 122.317017 C 272.502991 111.39502 249.971985 99.265015 241.566986 92.257019 C 231.533997 83.893005 226.464996 73.171997 225.303009 60.219971 C 224.158997 47.474976 227.174011 35.39801 235.464996 25.5 C 246.59201 12.214966 262.38501 6.188965 279.279999 4.708008 C 292.208008 3.083984 305.714996 7.002014 317.772003 11.218018 C 317.625 20.282959 317.600006 29.349976 317.694 38.416016 C 317.723999 44.593994 317.328003 51.278015 318.431 57.364014 C 307.987 50.688965 298.480011 46.403015 285.709991 47.619995 C 281.916992 47.981995 276.808014 49.10199 274.334015 52.299011 C 273.108002 53.882996 272.761993 55.776001 273.087006 57.72998 C 274.941986 68.906006 292.776001 75.841003 301.147003 82.177979 C 313.362 91.424988 321.061005 102.242981 323.096008 117.690979 C 324.858002 131.062012 322.64801 145.804993 314.209015 156.650024 C 304.298004 169.38501 290.205994 174.224976 274.704987 176.247009 C 260.373993 177.979004 242.799988 177.138 228.923004 173.273987 C 228.971008 159.807983 228.865997 146.343018 228.609009 132.880005 Z"/>
    <path id="path2" fill="#66899b" stroke="none" d="M 505.414001 29.884033 C 507.400024 25.416992 509.61499 20.987 512.80603 17.244995 C 519.781982 9.062988 529.611023 6.452026 539.906006 5.709961 C 542.06897 5.533997 544.294983 5.572998 546.46698 5.509033 C 546.629028 20.349976 546.497009 35.205994 546.504028 50.047974 C 551.27301 41.571045 556.148987 33.309998 563.106995 26.415039 C 577.646973 12.007996 597.724976 5.131958 617.953003 5.296997 C 640.107971 5.479004 659.481995 12.661011 675.03302 28.638 C 694.315979 48.450012 699.744995 75.313965 699.36499 102.057007 C 661.296021 101.564026 623.208984 102.179016 585.13501 101.656006 C 585.289978 104.419983 585.530029 107.150024 585.991028 109.882019 C 587.424011 118.38501 591.111023 126.890015 598.455017 131.883972 C 604.992981 136.330994 613.671021 137.619019 621.336975 135.945984 C 628.979004 134.278992 634.362 129.974976 638.39502 123.445007 L 690.940002 123.466003 C 688.567017 133.232971 684.171021 142.393005 678.036011 150.354004 C 665.073975 167.075012 646.778015 174.411011 626.349976 176.95697 C 612.828979 178.002014 599.205994 177.21698 586.364014 172.544983 C 568.16803 166.036011 553.411987 152.390015 545.502991 134.757996 C 536.801025 115.648987 534.995972 91.254028 539.593018 70.853027 C 541.14801 63.947998 543.710022 57.421997 546.215027 50.822021 C 535.515015 50.966003 525.862 52.72699 518.036987 60.580994 C 512.981995 65.655029 510.080994 72.130005 508.598022 79.067993 C 506.060974 90.93396 507.211975 104.29303 507.171021 116.41803 C 507.049011 136.166992 507.031006 155.916016 507.119019 175.664978 C 491.190002 175.869019 475.245972 175.723999 459.315979 175.715027 C 460.507996 119.632996 459.471008 63.515015 459.877991 7.427002 L 505.362 7.333008 C 505.249023 14.849976 505.265991 22.368042 505.414001 29.884033 Z M 615.299988 46.188965 C 606.52002 47.059998 598.986023 49.744019 593.234009 56.88501 C 590.22699 60.619995 588.551025 64.890991 587.143982 69.419006 L 621.208984 69.369019 L 648.46698 69.400024 C 646.151978 61.161011 642.27002 54.557007 634.593018 50.172974 C 629.013977 46.987 621.689026 45.578979 615.299988 46.188965 Z"/>
    <path id="path3" fill="#66899b" stroke="none" d="M 454.656006 49.75 L 454.695984 115.120972 C 454.659973 131.997986 453.14801 147.258972 440.478027 159.713989 C 427.51001 172.463989 409.091003 177.005005 391.370972 176.882996 C 373.846008 176.763 355.06897 173.036987 342.351013 160.036011 C 336.282013 153.888977 332.003998 146.203003 329.97699 137.80603 C 326.014008 121.236023 327.524994 97.101013 327.515991 79.545044 L 327.561005 7.161987 C 342.787994 7.478027 358.038025 7.407959 373.268982 7.48999 L 373.315979 80.229004 C 373.299988 92.112 372.260986 106.846008 373.76001 118.424011 C 374.242004 122.148987 375.169983 125.513 377.72699 128.382019 C 380.937988 131.984985 385.697021 133.90802 390.476013 134.039978 C 395.27301 134.171997 400.059021 132.93103 403.572021 129.521973 C 405.851013 127.309021 407.536011 124.44397 408.171997 121.333008 C 410.15802 111.627014 409.140991 95.245972 409.195007 84.983032 L 409.401001 7.132996 L 454.603027 7.377991 C 454.827026 21.490967 454.651978 35.632996 454.656006 49.75 Z"/>
</svg>
